<?xml version="1.0" standalone="no"?>
<!DOCTYPE svg PUBLIC "-//W3C//DTD SVG 20010904//EN"
 "http://www.w3.org/TR/2001/REC-SVG-20010904/DTD/svg10.dtd">
<svg version="1.0" xmlns="http://www.w3.org/2000/svg"
 width="250.000000pt" height="86.000000pt" viewBox="0 0 250.000000 86.000000"
 preserveAspectRatio="xMidYMid meet">

<g transform="translate(0.000000,86.000000) scale(0.100000,-0.100000)"
fill="#000000" stroke="none">
<path d="M621 826 c-61 -63 -117 -85 -283 -111 -29 -5 -39 -11 -44 -30 -10
-40 1 -44 78 -29 130 25 196 52 249 103 46 44 62 82 41 95 -5 3 -23 -10 -41
-28z"
  fill="#E8303F"
  />
<path d="M692 745 c-48 -40 -149 -82 -257 -106 -55 -12 -103 -27 -107 -33 -16
-23 -8 -46 15 -46 35 0 240 56 289 80 60 28 128 87 128 111 0 27 -32 24 -68
-6z"
  fill="#E8303F"/>
<path d="M128 616 c-70 -13 -81 -23 -85 -78 -5 -71 -7 -82 -25 -107 -57 -81
103 -89 253 -13 59 30 73 42 75 62 4 47 -5 60 -43 60 -35 0 -36 0 -18 20 15
17 16 24 7 45 -10 22 -18 25 -59 24 -27 -1 -74 -6 -105 -13z"
 fill="#2F3C96" />
<path d="M676 609 c-27 -11 -103 -34 -170 -51 -67 -17 -127 -36 -133 -41 -20
-15 -16 -57 5 -57 25 0 150 35 260 72 74 25 96 37 103 56 9 23 5 43 -9 41 -4
-1 -29 -10 -56 -20z"
  fill="#E8303F"
  />
<path d="M590 463 c-52 -19 -174 -54 -270 -79 -96 -25 -187 -49 -201 -55 -48
-19 -77 -102 -45 -128 18 -15 207 30 438 105 174 57 200 72 215 132 7 28 -7
56 -28 58 -8 1 -57 -14 -109 -33z"
  fill="#E8303F"
  />
<path d="M931 396 c-58 -32 -69 -119 -22 -167 25 -24 38 -29 78 -29 47 0 73
12 73 34 0 6 -5 5 -12 -2 -19 -19 -76 -14 -98 8 -25 25 -27 95 -4 128 16 24
71 31 91 11 13 -13 28 5 18 21 -9 14 -96 12 -124 -4z"
  fill="#2F3C96"
  />
<path d="M1111 324 c4 -76 7 -88 28 -105 25 -21 90 -26 121 -9 24 13 40 69 40
143 0 44 -3 57 -15 57 -12 0 -15 -15 -15 -73 0 -82 -16 -117 -55 -117 -43 0
-55 24 -55 111 0 78 0 79 -26 79 l-26 0 3 -86z"
  fill="#2F3C96"
  />
<path d="M1365 305 l0 -105 58 0 c31 0 57 4 57 10 0 6 -16 10 -35 10 l-35 0 0
95 c0 92 -1 95 -22 95 -22 0 -23 -3 -23 -105z"
  fill="#2F3C96"/>
<path d="M1500 400 c0 -5 11 -10 25 -10 25 0 25 0 25 -95 0 -95 0 -95 25 -95
25 0 25 0 25 95 0 95 0 95 25 95 14 0 25 5 25 10 0 6 -32 10 -75 10 -43 0 -75
-4 -75 -10z"
  fill="#2F3C96"/>
<path d="M1710 319 c4 -75 8 -93 24 -105 29 -21 99 -18 127 5 21 17 24 29 28
105 3 74 1 86 -13 86 -13 0 -16 -13 -16 -79 0 -86 -12 -111 -54 -111 -42 0
-56 29 -56 113 0 73 -1 77 -22 77 -23 0 -23 -2 -18 -91z"
  fill="#2F3C96"/>
<path d="M1955 305 c0 -102 1 -105 23 -105 20 0 22 5 22 48 l1 47 24 -40 c14
-22 26 -44 28 -48 1 -5 15 -7 30 -5 l27 3 -30 45 c-34 51 -36 60 -15 60 18 0
37 43 29 65 -10 24 -38 35 -91 35 l-48 0 0 -105z m83 73 c16 -16 15 -33 -4
-52 -25 -25 -34 -19 -34 24 0 41 14 52 38 28z"
  fill="#2F3C96"/>
<path d="M2181 310 c-22 -55 -41 -103 -41 -105 0 -3 6 -5 14 -5 8 0 17 14 21
30 6 27 10 30 45 30 33 0 39 -4 49 -30 7 -22 16 -30 35 -30 l24 0 -41 105
c-23 58 -47 105 -53 105 -6 0 -30 -45 -53 -100z m53 14 c11 -29 6 -44 -14 -44
-22 0 -23 3 -14 38 7 26 19 29 28 6z"
  fill="#2F3C96"/>
<path d="M2380 305 l0 -105 55 0 c30 0 55 5 55 10 0 6 -16 10 -36 10 l-35 0 3
95 c3 93 2 95 -19 95 -22 0 -23 -3 -23 -105z"
  fill="#2F3C96"/>
<path d="M570 265 c-52 -19 -176 -55 -275 -80 -99 -25 -190 -51 -202 -57 -29
-14 -56 -73 -49 -104 8 -32 29 -31 179 6 187 47 428 129 456 155 18 18 24 35
25 67 1 56 -10 57 -134 13z"
  fill="#E8303F"/>
</g>
</svg>
